<?xml version="1.0" encoding="UTF-8" standalone="no"?><!-- Generator: Gravit.io --><svg xmlns="http://www.w3.org/2000/svg" xmlns:xlink="http://www.w3.org/1999/xlink" style="isolation:isolate" viewBox="0 0 20 20" width="20pt" height="20pt"><defs><clipPath id="_clipPath_tN80p7upzogmfPLJTNJMzRBaZiYUw4QC"><rect width="20" height="20"/></clipPath></defs><g clip-path="url(#_clipPath_tN80p7upzogmfPLJTNJMzRBaZiYUw4QC)"><g><path d=" M 14.813 9.717 C 14.813 11.738 13.09 14.314 10 14.361 Q 10.013 14.362 10 17.926 L 11.132 17.926 L 10 16.794 L 10 17.926 L 8.868 17.926 L 10 16.794 Q 10.004 14.362 10 14.361 C 6.904 14.241 5.188 11.816 5.188 9.717" fill="none" vector-effect="non-scaling-stroke" stroke-width="1" stroke="rgb(0,0,0)" stroke-linejoin="round" stroke-linecap="round" stroke-miterlimit="3"/><path d=" M 9.876 2.074 L 10.124 2.074 C 12.087 2.074 13.68 3.667 13.68 5.63 L 13.68 9.101 C 13.68 11.064 12.087 12.657 10.124 12.657 L 9.876 12.657 C 7.913 12.657 6.32 11.064 6.32 9.101 L 6.32 5.63 C 6.32 3.667 7.913 2.074 9.876 2.074 Z " fill="rgb(0,0,0)"/></g></g></svg>